PathFileType	4	(X/Y/Z)	/Users/itak/Documents/Research/Walk-IL/dataset/trc/00135_00007.trc
DataRate	CameraRate	NumFrames	NumMarkers	Units	OrigDataRate	OrigDataStartFrame	OrigNumFrames
100.000000	100.000000	4	53	mm	100.000000	281	751
Frame#	Time	RPSI			LPSI			L3			STRN			T10			C7			CLAV			RBAK			LBAK			LSHO			LUPA			LAEL			LAOL			LWTS			LWPS			LFRA			LIFD			LHPS			LHTS			RSHO			RUPA			RAEL			RAOL			RWTS			RWPS			RFRA			RIFD			RHTS			RHPS			RBHD			LFHD			RFHD			LBHD			LHIP			RHIP			RASI			LASI			LKNE			LTHI			LANK			LTIP			LTOE			LMT1			LMT5			LHEE			RKNE			RTHI			RANK			RTIP			RTOE			RMT1			RMT5			RHEE			
		X1	Y1	Z1	X2	Y2	Z2	X3	Y3	Z3	X4	Y4	Z4	X5	Y5	Z5	X6	Y6	Z6	X7	Y7	Z7	X8	Y8	Z8	X9	Y9	Z9	X10	Y10	Z10	X11	Y11	Z11	X12	Y12	Z12	X13	Y13	Z13	X14	Y14	Z14	X15	Y15	Z15	X16	Y16	Z16	X17	Y17	Z17	X18	Y18	Z18	X19	Y19	Z19	X20	Y20	Z20	X21	Y21	Z21	X22	Y22	Z22	X23	Y23	Z23	X24	Y24	Z24	X25	Y25	Z25	X26	Y26	Z26	X27	Y27	Z27	X28	Y28	Z28	X29	Y29	Z29	X30	Y30	Z30	X31	Y31	Z31	X32	Y32	Z32	X33	Y33	Z33	X34	Y34	Z34	X35	Y35	Z35	X36	Y36	Z36	X37	Y37	Z37	X38	Y38	Z38	X39	Y39	Z39	X40	Y40	Z40	X41	Y41	Z41	X42	Y42	Z42	X43	Y43	Z43	X44	Y44	Z44	X45	Y45	Z45	X46	Y46	Z46	X47	Y47	Z47	X48	Y48	Z48	X49	Y49	Z49	X50	Y50	Z50	X51	Y51	Z51	X52	Y52	Z52	X53	Y53	Z53	

282	2.81	-653.2301025390625	1097.648681640625	219.7318572998047	-785.080078125	1104.562377929688	191.5038909912109	-723.6336669921875	1138.800415039062	212.3131866455078	-653.9143676757812	1335.116333007812	-6.556361675262451	-731.2981567382812	1291.693115234375	243.8922729492188	-718.15673828125	1583.525146484375	202.6854248046875	-656.3572998046875	1470.432739257812	28.45766448974609	-664.8584594726562	1393.2734375	278.1284484863281	-817.7018432617188	1571.443603515625	173.5429840087891	-852.3865966796875	1560.239624023438	67.54787445068359	-932.6553344726562	1433.836303710938	55.51591873168945	-965.15087890625	1219.273071289062	16.36210250854492	-937.9829711914062	1197.8505859375	97.97756195068359	-903.9500122070312	964.5840454101562	-84.04549407958984	-961.978515625	937.14697265625	-22.53510093688965	-971.29931640625	1105.307739257812	-11.2813081741333	-881.2352905273438	771.2294921875	-93.35014343261719	-952.3328247070312	862.781982421875	-53.44625473022461	-910.5390625	875.2049560546875	-107.8570709228516	-530.091552734375	1549.114868164062	207.9910125732422	-483.2394104003906	1473.13818359375	248.4871063232422	-498.7144775390625	1181.530883789062	281.70068359375	-588.5147705078125	1189.076782226562	249.5762176513672	-472.49755859375	929.0609130859375	157.5775451660156	-478.4963989257812	915.995849609375	239.3191986083984	-481.9036865234375	1105.913208007812	270.4709777832031	-502.3501586914062	737.426025390625	132.0913543701172	-466.8453369140625	818.8889770507812	136.5668792724609	-470.9897766113281	813.2294921875	210.2749328613281	-622.6885986328125	1734.316162109375	208.3046417236328	-661.1670532226562	1829.91064453125	12.52835559844971	-545.8233642578125	1813.1787109375	68.66413116455078	-745.4367065429688	1755.096435546875	158.7490386962891	-874.376953125	1020.305236816406	76.95672607421875	-519.1941528320312	995.9652709960938	115.8820724487305	-549.11083984375	1071.060546875	29.47272109985352	-807.8681640625	1084.58251953125	-20.17605590820312	-897.8199462890625	512.239013671875	-2.542196750640869	-905.6972045898438	666.2319946289062	30.78253555297852	-998.1242065429688	222.5671234130859	444.2964782714844	-973.2877807617188	387.0130615234375	230.6584014892578	-932.6732788085938	35.36580276489258	335.7113647460938	-901.6229248046875	100.6836853027344	373.7314147949219	-1013.068725585938	108.072883605957	397.7822875976562	-940.4559326171875	286.75732421875	474.020263671875	-618.4423217773438	520.7533569335938	2.937469720840454	-542.15234375	787.1552124023438	57.32393646240234	-762.333251953125	27.35491371154785	17.0191822052002	-639.6405639648438	384.4085693359375	9.903349876403809	-684.0770874023438	42.23142623901367	-207.3174133300781	-753.78173828125	37.66452026367188	-179.8153686523438	-675.966064453125	41.84362411499023	-86.23625183105469	-831.9407348632812	28.93583869934082	40.37797164916992	
283	2.82	-651.4157104492188	1098.238037109375	211.7541198730469	-783.0189819335938	1104.935546875	181.5056915283203	-721.5382080078125	1139.146118164062	203.2500915527344	-649.3692626953125	1336.032836914062	-14.70897483825684	-729.1474609375	1292.191528320312	234.6843719482422	-715.4589233398438	1584.173217773438	194.2316589355469	-652.5524291992188	1471.31494140625	20.29880523681641	-662.6525268554688	1393.893676757812	269.9363403320312	-814.8493041992188	1571.945434570312	164.4251403808594	-849.15087890625	1560.66064453125	58.27845764160156	-929.0010986328125	1433.921020507812	46.3266716003418	-960.87353515625	1219.168212890625	7.928085327148438	-933.8638916015625	1198.211791992188	89.65746307373047	-900.278076171875	963.1487426757812	-89.64939117431641	-958.5298461914062	936.7908325195312	-27.86944198608398	-967.1265258789062	1104.987670898438	-18.67137336730957	-879.4616088867188	769.629150390625	-97.23664855957031	-949.5463256835938	862.1741333007812	-58.08448791503906	-907.593505859375	873.6896362304688	-112.5999298095703	-527.5415649414062	1549.887084960938	200.8019561767578	-480.7326965332031	1473.800537109375	241.2796783447266	-494.765625	1181.840454101562	272.4807434082031	-584.60595703125	1189.147094726562	240.3757019042969	-466.9087829589844	930.6596069335938	146.2794952392578	-472.8819580078125	916.8536376953125	227.9044952392578	-477.4886474609375	1106.412109375	260.6194152832031	-495.236572265625	739.006103515625	119.2586135864258	-460.3872375488281	820.7216796875	124.3796539306641	-464.480712890625	814.4371337890625	198.0647125244141	-620.0173950195312	1735.021606445312	200.3132476806641	-657.4224243164062	1830.725830078125	4.378864765167236	-542.4260864257812	1814.030029296875	61.21550750732422	-742.577880859375	1755.828979492188	149.9569396972656	-870.3497314453125	1020.839660644531	65.22525024414062	-515.7412109375	996.5308227539062	110.0428848266602	-544.3109130859375	1071.882934570312	23.09272003173828	-802.2816772460938	1085.454467773438	-30.53129768371582	-889.5665893554688	513.8095092773438	-25.60517501831055	-899.318359375	667.3143310546875	10.8357515335083	-1000.099487304688	225.2271423339844	419.0997619628906	-970.260498046875	388.8266296386719	205.8885650634766	-934.461181640625	38.49280166625977	308.8890380859375	-903.3217163085938	103.4500503540039	348.5216369628906	-1015.363891601562	112.0804977416992	370.083251953125	-942.6090698242188	288.18212890625	451.4434509277344	-616.882568359375	520.2871704101562	0.5969845056533813	-539.61328125	787.0647583007812	52.66971969604492	-762.400634765625	27.36582374572754	16.93964576721191	-638.5360717773438	384.1487121582031	8.300597190856934	-684.1764526367188	41.97158432006836	-207.5176696777344	-753.8212890625	37.56124496459961	-179.9178924560547	-675.8521728515625	41.86744689941406	-86.31405639648438	-831.9103393554688	29.02908897399902	40.40693283081055	
284	2.83	-649.6724243164062	1098.809936523438	203.9646606445312	-781.0079956054688	1105.358154296875	171.5830230712891	-719.4940795898438	1139.588012695312	194.3239440917969	-644.784423828125	1336.984741210938	-22.65314102172852	-727.0926513671875	1292.724243164062	225.6208038330078	-712.8589477539062	1584.85986328125	185.8836669921875	-648.74462890625	1472.246337890625	12.30659770965576	-660.55712890625	1394.561279296875	261.8607482910156	-812.0537109375	1572.521362304688	155.3516998291016	-845.8905639648438	1561.198974609375	49.02616119384766	-925.3738403320312	1434.158813476562	37.14178466796875	-956.6405639648438	1219.18359375	-0.2504733502864838	-929.656982421875	1198.73583984375	81.55508422851562	-896.7060546875	961.9620971679688	-95.17578887939453	-954.9642944335938	936.589599609375	-32.99068069458008	-962.994873046875	1104.791015625	-25.8025951385498	-877.8541870117188	768.3704833984375	-101.4543914794922	-946.7421264648438	861.7879638671875	-62.64772415161133	-904.8306274414062	872.5068969726562	-117.3854293823242	-525.0912475585938	1550.750244140625	193.8092346191406	-478.3150329589844	1474.574829101562	234.2804565429688	-490.861328125	1182.268676757812	263.3732604980469	-580.7138061523438	1189.331665039062	231.1754455566406	-461.152099609375	932.37353515625	135.1737060546875	-467.2109069824219	917.8748779296875	216.6757202148438	-473.0935668945312	1107.040771484375	250.8985748291016	-487.8763427734375	740.665283203125	106.7914886474609	-453.6990356445312	822.6486206054688	112.4987106323242	-457.8299865722656	815.8094482421875	186.1558532714844	-617.329833984375	1735.752685546875	192.4046325683594	-653.5853881835938	1831.539672851562	-3.714788675308228	-538.9605102539062	1814.82568359375	53.83230209350586	-739.6527099609375	1756.616333007812	141.2505798339844	-866.3125610351562	1021.526123046875	53.64891052246094	-512.33349609375	997.044677734375	104.5364456176758	-539.4664306640625	1072.710205078125	17.05055809020996	-796.5723266601562	1086.364990234375	-40.79363250732422	-880.6407470703125	515.713134765625	-48.22455978393555	-892.5261840820312	668.6531372070312	-8.836940765380859	-1001.808471679688	226.5752868652344	392.8713684082031	-966.70166015625	390.3221740722656	181.0283660888672	-935.8458862304688	41.29558181762695	279.985595703125	-904.6819458007812	105.254753112793	321.7154541015625	-1017.269348144531	115.1082534790039	340.6575622558594	-944.566650390625	288.0537719726562	428.2370300292969	-615.3350219726562	519.816162109375	-1.438248157501221	-536.9916381835938	786.9989013671875	48.29781341552734	-762.4790649414062	27.36715888977051	16.88450622558594	-637.471923828125	383.9083862304688	6.944890975952148	-684.2338256835938	41.85133743286133	-207.6299133300781	-753.8246459960938	37.57345962524414	-179.9801330566406	-675.7003173828125	41.89788436889648	-86.35566711425781	-831.884033203125	29.1168212890625	40.44763946533203	
285	2.84	-647.9876708984375	1099.357543945312	196.3178253173828	-779.0108032226562	1105.814819335938	161.7512054443359	-717.4943237304688	1140.098754882812	185.5359039306641	-640.156494140625	1337.955322265625	-30.41143798828125	-725.1109619140625	1293.283325195312	216.6954650878906	-710.3491821289062	1585.57177734375	177.6182556152344	-644.9049682617188	1473.211669921875	4.463388442993164	-658.5641479492188	1395.2626953125	253.8938446044922	-809.2987060546875	1573.153198242188	146.2986907958984	-842.5758666992188	1561.839721679688	39.76351547241211	-921.7588500976562	1434.542236328125	27.91878318786621	-952.4686279296875	1219.319702148438	-8.209502220153809	-925.4126586914062	1199.427490234375	73.65187072753906	-893.207275390625	961.0238647460938	-100.6462707519531	-951.2810668945312	936.525146484375	-37.93899536132812	-958.9176025390625	1104.717407226562	-32.71224212646484	-876.26513671875	767.4280395507812	-105.9460601806641	-943.86279296875	861.5874633789062	-67.15422821044922	-902.16943359375	871.6279296875	-122.2105941772461	-522.7293701171875	1551.688842773438	187.0031433105469	-475.9816589355469	1475.448486328125	227.4932556152344	-487.0271301269531	1182.806884765625	254.4371185302734	-576.8534545898438	1189.626342773438	222.0255432128906	-455.2357177734375	934.2079467773438	124.3054122924805	-461.5302429199219	919.0360717773438	205.6667633056641	-468.7525634765625	1107.784301757812	241.3721923828125	-480.2855529785156	742.4371337890625	94.61589050292969	-446.7872924804688	824.6929321289062	100.9236831665039	-451.1031494140625	817.32470703125	174.5346069335938	-614.6220703125	1736.51416015625	184.5806579589844	-649.6571044921875	1832.345947265625	-11.75360298156738	-535.428466796875	1815.567993164062	46.51010513305664	-736.659912109375	1757.456298828125	132.6395416259766	-862.2775268554688	1022.379089355469	42.2670783996582	-508.9824523925781	997.5079345703125	99.31085205078125	-534.605224609375	1073.519897460938	11.30012321472168	-790.75439453125	1087.310546875	-50.95565032958984	-871.084716796875	517.9347534179688	-70.30933380126953	-885.3387451171875	670.229736328125	-28.16580009460449	-1003.232849121094	226.6495819091797	365.6667175292969	-962.6561889648438	391.4580383300781	156.1139373779297	-936.6854858398438	43.60908889770508	249.3314971923828	-905.6029052734375	106.0929641723633	293.5274963378906	-1018.650390625	117.1288757324219	309.7775573730469	-946.3477783203125	286.4330139160156	404.3496704101562	-613.7902221679688	519.351318359375	-3.178543567657471	-534.2572021484375	786.9944458007812	44.16034317016602	-762.568115234375	27.36093902587891	16.84755325317383	-636.4503784179688	383.6880798339844	5.818249225616455	-684.2554321289062	41.81459808349609	-207.6833801269531	-753.8010864257812	37.67533874511719	-180.0137023925781	-675.5438232421875	41.91022491455078	-86.36556243896484	-831.8551025390625	29.21169090270996	40.50102233886719	
